<?xml version="1.0" standalone="no"?><!DOCTYPE svg PUBLIC "-//W3C//DTD SVG 1.1//EN" "http://www.w3.org/Graphics/SVG/1.1/DTD/svg11.dtd"><svg t="1724121150389" class="icon" viewBox="0 0 1024 1024" version="1.1" xmlns="http://www.w3.org/2000/svg" p-id="2913" xmlns:xlink="http://www.w3.org/1999/xlink" width="200" height="200"><path d="M511.872 720.128h2.176a21.248 21.248 0 0 0 13.824-6.186667l30.165333-30.186666a21.269333 21.269333 0 0 0 4.650667-6.954667l309.781333-309.824a21.333333 21.333333 0 0 0 0-30.165333l-30.165333-30.165334a21.333333 21.333333 0 0 0-30.165333 0L511.616 607.189333 211.093333 306.645333a21.333333 21.333333 0 0 0-30.165333 0l-30.186667 30.165334a21.333333 21.333333 0 0 0 0 30.165333l309.76 309.802667c1.066667 2.538667 2.602667 4.906667 4.693334 6.997333l30.144 30.165333c4.544 4.522667 10.602667 6.592 16.533333 6.186667z" fill="#ffffff" p-id="2914"></path></svg>